<svg viewBox="0 0 200 200" xmlns="http://www.w3.org/2000/svg">
  <circle cx="100" cy="100" r="80" fill="none" stroke="black" stroke-width="1.5" />
  <line x1="20" y1="100" x2="180" y2="100" stroke="black" stroke-width="1.5" />
  <line x1="100" y1="20" x2="100" y2="180" stroke="black" stroke-width="1.5" />
  <path d="M 100,20 A 40,80 0 0,0 100,180" fill="none" stroke="black" stroke-width="1.5" />
  <path d="M 100,20 A 40,80 0 0,1 100,180" fill="none" stroke="black" stroke-width="1.5" />
  <path d="M 100,20 A 75,80 0 0,0 100,180" fill="none" stroke="black" stroke-width="1.5" />
  <path d="M 100,20 A 75,80 0 0,1 100,180" fill="none" stroke="black" stroke-width="1.5" />
  <path d="M 27,60 A 80,40 0 0,0 173,60" fill="none" stroke="black" stroke-width="1.5" />
  <path d="M 27,140 A 80,40 0 0,1 173,140" fill="none" stroke="black" stroke-width="1.5" />
</svg>