<svg viewBox="0 0 200 200" xmlns="http://www.w3.org/2000/svg">
  <g fill="none" stroke="black" stroke-width="1.5">
    <path d="M 10 40 Q 30 30, 50 40 T 90 40 T 130 40 T 170 40 T 190 40" />
    <path d="M 10 70 Q 30 60, 50 70 T 90 70 T 130 70 T 170 70 T 190 70" />
    <path d="M 10 100 Q 30 90, 50 100 T 90 100 T 130 100 T 170 100 T 190 100" />
    <path d="M 10 130 Q 30 120, 50 130 T 90 130 T 130 130 T 170 130 T 190 130" />
    <path d="M 10 160 Q 30 150, 50 160 T 90 160 T 130 160 T 170 160 T 190 160" />
  </g>
</svg>